HIERARCHY
ROOT Hips
{
	OFFSET 0.00000 0.00000 0.00000
	CHANNELS 6 Xposition Yposition Zposition Zrotation Yrotation Xrotation 
	JOINT LHipJoint
	{
		OFFSET 0 0 0
		CHANNELS 3 Zrotation Yrotation Xrotation
		JOINT LeftUpLeg
		{
			OFFSET 1.75344 -1.53157 0.77399
			CHANNELS 3 Zrotation Yrotation Xrotation
			JOINT LeftLeg
			{
				OFFSET 2.25415 -6.19323 0.00000
				CHANNELS 3 Zrotation Yrotation Xrotation
				JOINT LeftFoot
				{
					OFFSET 2.30342 -6.32861 0.00000
					CHANNELS 3 Zrotation Yrotation Xrotation
					JOINT LeftToeBase
					{
						OFFSET 0.10958 -0.30108 1.49206
						CHANNELS 3 Zrotation Yrotation Xrotation
						End Site
						{
							OFFSET 0.00000 -0.00000 0.77783
						}
					}
				}
			}
		}
	}
	JOINT RHipJoint
	{
		OFFSET 0 0 0
		CHANNELS 3 Zrotation Yrotation Xrotation
		JOINT RightUpLeg
		{
			OFFSET -1.81912 -1.53156 0.77399
			CHANNELS 3 Zrotation Yrotation Xrotation
			JOINT RightLeg
			{
				OFFSET -2.22882 -6.12365 0.00000
				CHANNELS 3 Zrotation Yrotation Xrotation
				JOINT RightFoot
				{
					OFFSET -2.21943 -6.09785 0.00000
					CHANNELS 3 Zrotation Yrotation Xrotation
					JOINT RightToeBase
					{
						OFFSET -0.18931 -0.52012 1.59379
						CHANNELS 3 Zrotation Yrotation Xrotation
						End Site
						{
							OFFSET -0.00000 -0.00000 0.84686
						}
					}
				}
			}
		}
	}
	JOINT LowerBack
	{
		OFFSET 0 0 0
		CHANNELS 3 Zrotation Yrotation Xrotation
		JOINT Spine
		{
			OFFSET -0.00200 1.66634 -0.14248
			CHANNELS 3 Zrotation Yrotation Xrotation
			JOINT Spine1
			{
				OFFSET -0.00875 1.64542 0.09514
				CHANNELS 3 Zrotation Yrotation Xrotation
				JOINT Neck
				{
					OFFSET 0 0 0
					CHANNELS 3 Zrotation Yrotation Xrotation
					JOINT Neck1
					{
						OFFSET 0.02257 1.59605 0.00839
						CHANNELS 3 Zrotation Yrotation Xrotation
						JOINT Head
						{
							OFFSET -0.10214 1.57530 -0.23335
							CHANNELS 3 Zrotation Yrotation Xrotation
							End Site
							{
								OFFSET -0.03588 1.60717 -0.08062
							}
						}
					}
				}
				JOINT LeftShoulder
				{
					OFFSET 0 0 0
					CHANNELS 3 Zrotation Yrotation Xrotation
					JOINT LeftArm
					{
						OFFSET 2.54983 1.10186 0.40078
						CHANNELS 3 Zrotation Yrotation Xrotation
						JOINT LeftForeArm
						{
							OFFSET 4.28840 -0.00000 0.00000
							CHANNELS 3 Zrotation Yrotation Xrotation
							JOINT LeftHand
							{
								OFFSET 3.06552 -0.00000 -0.00000
								CHANNELS 3 Zrotation Yrotation Xrotation
								JOINT LeftFingerBase
								{
									OFFSET 0 0 0
									CHANNELS 3 Zrotation Yrotation Xrotation
									JOINT LeftHandIndex1
									{
										OFFSET 0.75304 -0.00000 0.00000
										CHANNELS 3 Zrotation Yrotation Xrotation
										End Site
										{
											OFFSET 0.60712 -0.00000 0.00000
										}
									}
								}
								JOINT LThumb
								{
									OFFSET 0 0 0
									CHANNELS 3 Zrotation Yrotation Xrotation
									End Site
									{
										OFFSET 0.61639 -0.00000 0.61639
									}
								}
							}
						}
					}
				}
				JOINT RightShoulder
				{
					OFFSET 0 0 0
					CHANNELS 3 Zrotation Yrotation Xrotation
					JOINT RightArm
					{
						OFFSET -2.60909 1.35448 0.21802
						CHANNELS 3 Zrotation Yrotation Xrotation
						JOINT RightForeArm
						{
							OFFSET -4.52172 -0.00000 -0.00000
							CHANNELS 3 Zrotation Yrotation Xrotation
							JOINT RightHand
							{
								OFFSET -2.89140 -0.00000 0.00000
								CHANNELS 3 Zrotation Yrotation Xrotation
								JOINT RightFingerBase
								{
									OFFSET 0 0 0
									CHANNELS 3 Zrotation Yrotation Xrotation
									JOINT RightHandIndex1
									{
										OFFSET -0.68054 -0.00000 0.00000
										CHANNELS 3 Zrotation Yrotation Xrotation
										End Site
										{
											OFFSET -0.54867 -0.00000 0.00000
										}
									}
								}
								JOINT RThumb
								{
									OFFSET 0 0 0
									CHANNELS 3 Zrotation Yrotation Xrotation
									End Site
									{
										OFFSET -0.55705 -0.00000 0.55705
									}
								}
							}
						}
					}
				}
			}
		}
	}
}
MOTION
Frames: 7
Frame Time: .0083333
9.1120 15.2656 -36.4654 -4.4750 -73.3082 5.1649 0.0000 0.0000 0.0000 -13.5577 -28.9800 -18.5412 5.0480 13.4376 41.0296 -2.5677 -27.4517 16.4754 2.7233 10.2330 29.7346 0.0000 0.0000 0.0000 28.2799 13.9550 0.2911 -2.0263 -8.9207 25.5477 -0.6149 -16.4286 -28.3577 -0.0959 1.9971 -5.4977 3.3129 0.6290 10.6006 0.3481 1.3469 -3.4622 -1.7455 0.4585 -9.6116 11.0857 18.0880 -0.8115 -7.6020 24.7526 10.7756 -2.2349 12.2372 5.6998 0.0000 -0.0000 0.0000 -86.1193 -1.3679 27.2593 18.7893 -29.1560 -4.9278 -0.0000 -0.0000 13.2543 0.7403 -26.2978 -0.3280 -7.1250 0.0000 -0.0000 -17.4168 4.6707 16.7503 0.0000 -0.0000 0.0000 74.9937 -25.7355 31.3704 -18.6026 28.9218 -4.8371 0.0000 0.0000 22.1922 -9.3509 -52.4000 7.4331 7.1250 -0.0000 -0.0000 65.8861 -74.5362 -50.5575
9.1394 15.2622 -36.5102 -3.9314 -72.0363 4.5243 0.0000 0.0000 0.0000 -13.7217 -28.2048 -19.1153 5.0615 13.4527 41.0876 -2.4739 -27.1157 16.8863 2.6463 10.0991 29.2983 0.0000 0.0000 0.0000 28.5338 13.8561 0.3063 -2.0289 -8.9260 25.5640 -0.5286 -17.3500 -28.7860 -0.0351 1.2090 -3.3239 3.3952 0.5668 10.8501 0.3059 1.2818 -3.4153 -1.8295 0.4194 -9.7080 10.8822 17.8750 -1.0799 -7.5836 24.4551 10.8983 -2.2138 12.0765 5.7273 0.0000 0.0000 0.0000 -86.2601 -1.8286 26.0240 18.1621 -28.3642 -4.6260 -0.0000 -0.0000 13.7525 1.9000 -26.5715 -0.8502 -7.1250 0.0000 -0.0000 -16.7381 4.3283 16.1456 0.0000 0.0000 0.0000 74.7794 -25.6998 31.3408 -18.6730 29.0103 -4.8712 0.0000 0.0000 23.5817 -10.7225 -52.8908 8.5874 7.1250 -0.0000 -0.0000 66.9643 -75.2098 -52.2747
9.1607 15.2656 -36.5532 -3.1517 -70.8108 4.4606 0.0000 0.0000 0.0000 -13.5773 -29.1879 -19.9962 5.0817 13.4752 41.1743 -2.2848 -26.0560 15.6222 2.6279 10.0668 29.1933 0.0000 0.0000 0.0000 28.4278 14.0340 -0.5402 -2.0227 -8.9131 25.5239 -0.3943 -18.3450 -29.0100 -0.0130 0.7361 -2.0228 3.2611 0.4968 10.1368 0.3105 1.1417 -3.5705 -1.7116 0.3628 -9.4686 10.6396 17.7024 -1.2151 -7.6654 24.2389 11.0063 -2.2196 11.9529 5.7448 -0.0000 0.0000 0.0000 -86.6285 -1.6920 24.5047 17.8623 -27.9804 -4.4844 -0.0000 -0.0000 13.8158 3.3487 -26.6856 -1.5052 -7.1250 0.0000 -0.0000 -15.8923 4.1065 15.3264 -0.0000 0.0000 0.0000 74.3764 -25.5995 31.4490 -18.7602 29.1196 -4.9136 0.0000 0.0000 24.6619 -12.1913 -53.1019 9.8025 7.1250 -0.0000 -0.0000 67.1194 -75.8318 -53.0947
9.1874 15.2696 -36.5992 -2.5235 -69.5873 3.6555 0.0000 0.0000 0.0000 -13.6788 -28.9895 -20.2315 5.0977 13.4930 41.2431 -1.8213 -24.2574 17.5856 4.2357 12.4676 37.4068 0.0000 0.0000 0.0000 28.5537 13.7078 -0.4914 -2.0153 -8.8978 25.4762 -0.3440 -19.1297 -29.6212 -0.0026 0.3288 -0.9035 3.0644 0.3697 10.5244 0.3570 0.9629 -3.5249 -1.5242 0.2873 -9.6593 10.3848 17.5833 -1.3340 -7.6820 24.0890 11.1066 -2.2001 11.8649 5.7539 -0.0000 -0.0000 0.0000 -87.1362 -1.4805 22.6700 17.6475 -27.7035 -4.3841 -0.0000 -0.0000 14.2820 4.4301 -26.8115 -2.0014 -7.1250 0.0000 -0.0000 -15.2597 3.8935 14.7302 -0.0000 -0.0000 0.0000 73.9883 -25.4558 31.4557 -18.8456 29.2264 -4.9552 0.0000 0.0000 25.4738 -12.8821 -52.8418 10.3298 7.1250 -0.0000 -0.0000 65.8208 -76.0203 -52.1126
9.2113 15.2736 -36.6440 -2.1959 -68.3994 3.0831 0.0000 0.0000 0.0000 -14.0987 -28.1182 -20.5574 5.1233 13.5214 41.3529 -2.3670 -26.2193 14.0235 1.7690 8.3675 23.8359 0.0000 0.0000 0.0000 28.7535 13.3869 -0.3991 -2.0148 -8.8968 25.4732 -0.3923 -19.4949 -30.4050 -0.0071 -0.5439 1.4945 3.1397 0.2962 10.9265 0.3129 0.8864 -3.4503 -1.6046 0.2426 -9.8163 10.0546 17.3866 -1.5902 -7.5112 23.8048 11.2611 -2.1218 11.7134 5.7582 0.0000 0.0000 0.0000 -87.1569 -1.9258 21.3219 17.1086 -27.0008 -4.1365 -0.0000 -0.0000 14.9762 4.8969 -27.1548 -2.2392 -7.1250 0.0000 -0.0000 -14.9889 3.5203 14.5559 0.0000 0.0000 0.0000 73.8658 -25.4173 31.2846 -19.0195 29.4430 -5.0405 0.0000 0.0000 25.9556 -13.4151 -52.6478 10.7357 7.1250 -0.0000 -0.0000 64.8289 -76.1663 -51.3675
9.2413 15.2638 -36.6922 -2.2127 -67.1985 3.1223 0.0000 0.0000 0.0000 -13.8903 -27.8410 -21.0646 5.1289 13.5275 41.3767 -1.6571 -23.3208 17.1680 4.5641 12.8754 38.9039 0.0000 0.0000 0.0000 29.0401 13.2046 -0.6015 -2.0105 -8.8880 25.4455 -0.4266 -19.7665 -30.9668 -0.0675 -1.6760 4.6110 3.3296 0.2389 11.1117 0.2494 0.8402 -3.4638 -1.7736 0.2040 -9.9402 9.9991 17.1549 -1.8020 -7.5586 23.4909 11.3763 -2.1408 11.5477 5.8008 -0.0000 -0.0000 0.0000 -87.2634 -1.7531 20.0419 16.9623 -26.8080 -4.0703 -0.0000 -0.0000 15.7867 5.2388 -27.2516 -2.4041 -7.1250 0.0000 -0.0000 -14.7902 3.3951 14.3840 -0.0000 -0.0000 0.0000 73.9388 -25.4394 31.0963 -19.2655 29.7473 -5.1619 0.0000 0.0000 26.0224 -14.2403 -52.5627 11.3933 7.1250 -0.0000 -0.0000 64.1224 -76.4602 -51.0390
9.2628 15.2610 -36.7349 -2.2435 -66.0381 3.5116 0.0000 0.0000 0.0000 -14.0112 -27.0556 -21.9787 5.1459 13.5462 41.4492 -2.3776 -26.0834 11.6172 1.1623 6.8443 19.2548 0.0000 0.0000 0.0000 29.2218 13.3185 -1.1298 -2.0159 -8.8991 25.4802 -0.4244 -20.2062 -31.4905 -0.1892 -2.8016 7.7270 3.5165 0.2762 10.7701 0.1416 0.8950 -3.5375 -2.0010 0.2164 -9.8137 10.2298 16.8676 -2.0245 -7.6865 23.0957 11.4789 -2.2224 11.3490 5.8768 -0.0000 -0.0000 0.0000 -87.1979 -1.7794 19.3384 16.6991 -26.4594 -3.9523 -0.0000 -0.0000 16.0830 5.4229 -27.1879 -2.4837 -7.1250 0.0000 -0.0000 -14.6817 3.4393 14.2585 -0.0000 -0.0000 0.0000 74.2766 -25.4964 30.5677 -19.5133 30.0515 -5.2855 0.0000 0.0000 26.0604 -14.2544 -52.2029 11.3511 7.1250 -0.0000 -0.0000 62.6877 -76.3458 -49.6253
